<mxfile host="app.diagrams.net" modified="2021-01-26T12:58:27.001Z" agent="5.0 (Macintosh; Intel Mac OS X 10_15_0) AppleWebKit/537.36 (KHTML, like Gecko) Chrome/87.0.4280.141 Safari/537.36" etag="Ud72fDXAx46tdsa-3hqX" version="14.2.7" type="github">
  <diagram id="-lPR5WWJP3ZVncU-H-TW" name="Page-1">
    <mxGraphModel dx="1413" dy="1634" grid="1" gridSize="10" guides="1" tooltips="1" connect="1" arrows="1" fold="1" page="1" pageScale="1" pageWidth="827" pageHeight="1169" math="0" shadow="0">
      <root>
        <mxCell id="0" />
        <mxCell id="1" parent="0" />
        <mxCell id="xVgEXblmp4p8JwG9iHcT-21" value="" style="rounded=1;whiteSpace=wrap;html=1;" vertex="1" parent="1">
          <mxGeometry x="-60" y="50" width="430" height="240" as="geometry" />
        </mxCell>
        <mxCell id="xVgEXblmp4p8JwG9iHcT-19" value="" style="rounded=1;whiteSpace=wrap;html=1;" vertex="1" parent="1">
          <mxGeometry x="60" y="70" width="80" height="180" as="geometry" />
        </mxCell>
        <mxCell id="xVgEXblmp4p8JwG9iHcT-17" value="" style="rounded=1;whiteSpace=wrap;html=1;" vertex="1" parent="1">
          <mxGeometry x="160" y="70" width="80" height="180" as="geometry" />
        </mxCell>
        <mxCell id="xVgEXblmp4p8JwG9iHcT-15" value="" style="rounded=1;whiteSpace=wrap;html=1;" vertex="1" parent="1">
          <mxGeometry x="260" y="70" width="80" height="180" as="geometry" />
        </mxCell>
        <mxCell id="xVgEXblmp4p8JwG9iHcT-1" value="策略引擎" style="rounded=0;whiteSpace=wrap;html=1;" vertex="1" parent="1">
          <mxGeometry x="120" y="360" width="120" height="60" as="geometry" />
        </mxCell>
        <mxCell id="xVgEXblmp4p8JwG9iHcT-9" value="营销" style="ellipse;whiteSpace=wrap;html=1;aspect=fixed;" vertex="1" parent="1">
          <mxGeometry x="70" y="180" width="60" height="60" as="geometry" />
        </mxCell>
        <mxCell id="xVgEXblmp4p8JwG9iHcT-10" value="风控" style="ellipse;whiteSpace=wrap;html=1;aspect=fixed;" vertex="1" parent="1">
          <mxGeometry x="70" y="80" width="60" height="60" as="geometry" />
        </mxCell>
        <mxCell id="xVgEXblmp4p8JwG9iHcT-11" value="QA" style="ellipse;whiteSpace=wrap;html=1;aspect=fixed;" vertex="1" parent="1">
          <mxGeometry x="170" y="80" width="60" height="60" as="geometry" />
        </mxCell>
        <mxCell id="xVgEXblmp4p8JwG9iHcT-12" value="流程" style="ellipse;whiteSpace=wrap;html=1;aspect=fixed;" vertex="1" parent="1">
          <mxGeometry x="170" y="180" width="60" height="60" as="geometry" />
        </mxCell>
        <mxCell id="xVgEXblmp4p8JwG9iHcT-13" value="算法" style="ellipse;whiteSpace=wrap;html=1;aspect=fixed;" vertex="1" parent="1">
          <mxGeometry x="270" y="80" width="60" height="60" as="geometry" />
        </mxCell>
        <mxCell id="xVgEXblmp4p8JwG9iHcT-14" value="预测" style="ellipse;whiteSpace=wrap;html=1;aspect=fixed;" vertex="1" parent="1">
          <mxGeometry x="270" y="180" width="60" height="60" as="geometry" />
        </mxCell>
        <mxCell id="xVgEXblmp4p8JwG9iHcT-16" value="智能" style="text;html=1;strokeColor=none;fillColor=none;align=center;verticalAlign=middle;whiteSpace=wrap;rounded=0;" vertex="1" parent="1">
          <mxGeometry x="280" y="260" width="40" height="20" as="geometry" />
        </mxCell>
        <mxCell id="xVgEXblmp4p8JwG9iHcT-18" value="是非" style="text;html=1;strokeColor=none;fillColor=none;align=center;verticalAlign=middle;whiteSpace=wrap;rounded=0;" vertex="1" parent="1">
          <mxGeometry x="180" y="260" width="40" height="20" as="geometry" />
        </mxCell>
        <mxCell id="xVgEXblmp4p8JwG9iHcT-20" value="判断" style="text;html=1;strokeColor=none;fillColor=none;align=center;verticalAlign=middle;whiteSpace=wrap;rounded=0;" vertex="1" parent="1">
          <mxGeometry x="80" y="260" width="40" height="20" as="geometry" />
        </mxCell>
        <mxCell id="xVgEXblmp4p8JwG9iHcT-22" value="应用场景" style="text;html=1;strokeColor=none;fillColor=none;align=center;verticalAlign=middle;whiteSpace=wrap;rounded=0;" vertex="1" parent="1">
          <mxGeometry x="-40" y="150" width="60" height="20" as="geometry" />
        </mxCell>
      </root>
    </mxGraphModel>
  </diagram>
</mxfile>
